<?xml version="1.0" encoding="utf-8"?>
<!-- Generator: Adobe Illustrator 22.0.1, SVG Export Plug-In . SVG Version: 6.00 Build 0)  -->
<svg version="1.1" id="Ebene_1" xmlns="http://www.w3.org/2000/svg" xmlns:xlink="http://www.w3.org/1999/xlink" x="0px" y="0px"
     viewBox="0 0 222 53" style="enable-background:new 0 0 222 53;" xml:space="preserve">
<style type="text/css">
	.st0{fill:#888888;}
	.st1{fill:#00A039;}
	.st2{fill:#4BB165;}
	.st3{fill:#8FCA90;}
</style>
    <title>Hensoldt_Inc_Claim_white</title>
    <desc>Created with Sketch.</desc>
    <g id="Group-11" transform="translate(0.000000, 46.000000)">
	<g id="Clip-2">
	</g>
        <path id="Fill-1" class="st0" d="M2.9,5.6c0.4,0,0.7-0.1,1-0.2s0.5-0.3,0.7-0.6C4.9,4.6,5.1,4.3,5.2,4s0.2-0.7,0.2-1
		c0-0.2,0-0.5-0.1-0.7S5.1,1.9,5,1.7C4.9,1.6,4.7,1.5,4.5,1.4S4.1,1.3,3.8,1.3H2.7L1.8,5.6H2.9z M3.9,0c1,0,1.7,0.2,2.2,0.7
		s0.7,1.1,0.7,2c0,0.6-0.1,1.2-0.2,1.7c-0.2,0.5-0.4,1-0.7,1.3S5.1,6.3,4.6,6.6C4.1,6.8,3.5,6.9,2.9,6.9H0L1.4,0H3.9L3.9,0z"/>
        <path id="Fill-3" class="st0" d="M11,3.5c0-0.1-0.1-0.2-0.1-0.3C10.8,3,10.7,3,10.6,2.9c-0.1-0.1-0.3-0.1-0.5-0.1s-0.4,0-0.5,0.1
		C9.4,2.9,9.3,3,9.2,3.1C9.1,3.2,9,3.3,8.9,3.5C8.8,3.6,8.8,3.7,8.7,3.9H11C11,3.7,11,3.6,11,3.5z M8.6,4.8C8.6,4.8,8.6,4.9,8.6,4.8
		V5c0,0.3,0.1,0.5,0.3,0.7C9,5.9,9.3,6,9.7,6C9.8,6,9.9,6,10,5.9c0.1,0,0.2-0.1,0.3-0.2s0.2-0.1,0.2-0.2c0.1-0.1,0.1-0.2,0.2-0.2
		h1.4C12,5.6,11.8,5.8,11.7,6s-0.3,0.4-0.5,0.5s-0.4,0.3-0.7,0.3C10.2,7,9.8,7,9.5,7S8.8,7,8.6,6.9C8.3,6.8,8.1,6.6,7.9,6.5
		C7.7,6.3,7.5,6,7.4,5.8c-0.1-0.3-0.1-0.6-0.1-1c0-0.4,0.1-0.8,0.2-1.1C7.6,3.3,7.8,3,8,2.7S8.5,2.2,8.9,2C9.2,1.9,9.6,1.8,10,1.8
		c0.3,0,0.7,0,0.9,0.1c0.3,0.1,0.5,0.2,0.7,0.4S12,2.7,12.1,3s0.2,0.6,0.2,0.9c0,0.2,0,0.5-0.1,0.8L8.6,4.8L8.6,4.8L8.6,4.8z"/>
        <path id="Fill-4" class="st0" d="M16.2,1.9L16,2.8h-1l-0.5,2.5c0,0.1,0,0.1,0,0.1v0.1c0,0.1,0,0.2,0,0.2l0.1,0.1h0.1
		c0.1,0,0.1,0,0.2,0c0.2,0,0.3,0,0.5,0l-0.2,1c-0.1,0-0.3,0-0.4,0c-0.1,0-0.3,0-0.4,0c-0.2,0-0.3,0-0.5,0s-0.3-0.1-0.4-0.2
		c-0.1-0.1-0.2-0.2-0.3-0.3C13.1,6.3,13,6.2,13,6c0-0.1,0-0.1,0-0.2s0-0.2,0-0.3l0.6-2.7h-0.9L13,1.9h0.9l0.3-1.5h1.4l-0.3,1.5H16.2
		"/>
        <path id="Fill-5" class="st0" d="M19.8,3.5c0-0.1-0.1-0.2-0.1-0.3C19.6,3,19.5,3,19.4,2.9s-0.3-0.1-0.5-0.1s-0.4,0-0.5,0.1
		c-0.2,0-0.3,0.1-0.4,0.2s-0.2,0.2-0.3,0.3c-0.1,0.1-0.1,0.3-0.2,0.4h2.3C19.8,3.7,19.8,3.6,19.8,3.5z M17.4,4.8
		C17.4,4.8,17.4,4.9,17.4,4.8V5c0,0.3,0.1,0.5,0.3,0.7C17.8,5.9,18.1,6,18.5,6c0.1,0,0.3,0,0.4-0.1c0.1,0,0.2-0.1,0.3-0.2
		c0.1-0.1,0.2-0.1,0.2-0.2c0.1-0.1,0.1-0.2,0.2-0.2H21c-0.1,0.3-0.2,0.5-0.4,0.7c-0.1,0.2-0.3,0.4-0.5,0.5s-0.4,0.3-0.7,0.3
		C19,7,18.6,7,18.3,7c-0.3,0-0.6,0-0.9-0.1s-0.5-0.2-0.7-0.4c-0.2-0.2-0.3-0.4-0.4-0.7c-0.1-0.3-0.2-0.6-0.2-0.9
		c0-0.4,0.1-0.8,0.2-1.1c0.1-0.4,0.3-0.7,0.5-1C17,2.4,17.3,2.2,17.7,2c0.3-0.2,0.7-0.3,1.1-0.3c0.3,0,0.7,0,0.9,0.1
		C20,2,20.3,2.1,20.5,2.3S20.8,2.7,21,3c0.1,0.3,0.2,0.6,0.2,0.9c0,0.2,0,0.5-0.1,0.8L17.4,4.8L17.4,4.8L17.4,4.8z"/>
        <path id="Fill-6" class="st0" d="M25.1,3c-0.2-0.1-0.4-0.2-0.7-0.2c-0.3,0-0.5,0.1-0.7,0.2c-0.2,0.1-0.3,0.3-0.4,0.5
		s-0.2,0.4-0.2,0.7C23,4.5,23,4.7,23,4.9c0,0.1,0,0.3,0,0.4s0.1,0.2,0.2,0.3c0.1,0.1,0.2,0.2,0.3,0.2C23.6,6,23.8,6,23.9,6
		c0.2,0,0.3,0,0.4-0.1c0.1,0,0.2-0.1,0.3-0.2c0.1-0.1,0.2-0.2,0.2-0.3C24.9,5.3,25,5.2,25,5.1h1.4c-0.2,0.6-0.5,1.1-0.9,1.4
		C25,6.8,24.5,7,23.8,7s-1.2-0.2-1.6-0.5s-0.6-0.9-0.6-1.6c0-0.4,0.1-0.8,0.2-1.2s0.3-0.7,0.5-1s0.5-0.5,0.9-0.7
		c0.3-0.2,0.7-0.2,1.2-0.2c0.3,0,0.6,0,0.9,0.1s0.5,0.2,0.7,0.3c0.2,0.1,0.4,0.3,0.5,0.6c0.1,0.2,0.2,0.5,0.2,0.8h-1.4
		C25.3,3.3,25.2,3.1,25.1,3"/>
        <path id="Fill-7" class="st0" d="M30.5,1.9l-0.2,0.9h-1l-0.5,2.5c0,0.1,0,0.1,0,0.1v0.1c0,0.1,0,0.2,0,0.2l0.1,0.1H29
		c0.1,0,0.1,0,0.2,0c0.2,0,0.3,0,0.5,0l-0.2,1c-0.1,0-0.3,0-0.4,0s-0.3,0-0.4,0c-0.2,0-0.3,0-0.5,0s-0.3-0.1-0.4-0.2
		s-0.2-0.2-0.3-0.3c-0.1-0.1-0.1-0.3-0.1-0.5c0-0.1,0-0.1,0-0.2s0-0.2,0-0.3L28,2.6h-0.9l0.2-0.9h0.9l0.3-1.5h1.4l-0.3,1.5h0.9"/>
        <path id="Fill-8" class="st0" d="M35.7,4.7c-0.2,0-0.4,0-0.6,0.1c-0.1,0-0.3,0-0.4,0.1c-0.1,0-0.2,0.1-0.3,0.1
		c-0.1,0.1-0.2,0.1-0.2,0.2C34.1,5.3,34,5.4,34,5.5c0,0.2,0.1,0.3,0.2,0.4C34.4,6,34.5,6,34.7,6s0.4,0,0.5-0.1s0.3-0.2,0.4-0.3
		c0.1-0.1,0.2-0.2,0.2-0.4C36,5.2,36,5.1,36.1,5l0.1-0.5C36,4.6,35.8,4.7,35.7,4.7z M33.6,2.6c0.1-0.2,0.3-0.4,0.5-0.5
		c0.2-0.1,0.4-0.2,0.7-0.3c0.3-0.1,0.5-0.1,0.8-0.1c0.2,0,0.5,0,0.7,0s0.5,0.1,0.7,0.2s0.4,0.2,0.5,0.4s0.2,0.4,0.2,0.7
		c0,0.2,0,0.5-0.1,0.8l-0.4,2c0,0.1,0,0.2-0.1,0.3c0,0.1,0,0.2,0,0.3c0,0.1,0,0.2,0,0.3h-1.4V6.4c-0.2,0.2-0.4,0.4-0.7,0.5
		c-0.1,0-0.4,0.1-0.7,0.1s-0.5,0-0.7-0.1s-0.4-0.2-0.5-0.3c-0.1-0.1-0.2-0.3-0.3-0.4c-0.1-0.2-0.1-0.3-0.1-0.5
		c0-0.5,0.2-0.9,0.5-1.2C33.5,4.3,34,4.1,34.6,4c0.3,0,0.6-0.1,0.8-0.1s0.4,0,0.6-0.1c0.2,0,0.3-0.1,0.4-0.2
		c0.1-0.1,0.1-0.2,0.1-0.4c0-0.1,0-0.2-0.1-0.3s-0.1-0.1-0.2-0.2c-0.1,0-0.2-0.1-0.3-0.1s-0.2,0-0.3,0c-0.2,0-0.5,0.1-0.7,0.2
		c-0.2,0.1-0.3,0.3-0.4,0.6h-1.3C33.4,3.1,33.5,2.8,33.6,2.6L33.6,2.6z"/>
        <path id="Fill-9" class="st0" d="M40.4,1.9l-0.2,0.7l0,0c0.4-0.6,1-0.8,1.7-0.8c1,0,1.5,0.4,1.5,1.3c0,0.1,0,0.1,0,0.2
		c0,0.1,0,0.2,0,0.2c0,0.1,0,0.2,0,0.2c0,0.1,0,0.1,0,0.2l-0.6,2.9h-1.4L42,4c0-0.1,0-0.2,0.1-0.3c0-0.1,0-0.2,0-0.3S42,3.1,41.9,3
		c-0.1-0.1-0.3-0.1-0.4-0.1c-0.2,0-0.4,0-0.5,0.1c-0.2,0.1-0.3,0.2-0.4,0.3c-0.1,0.1-0.2,0.3-0.3,0.4C40.1,3.9,40,4.1,40,4.2
		l-0.6,2.6H38l1-5h1.4"/>
        <path id="Fill-10" class="st0" d="M46.3,3c-0.2,0.1-0.3,0.3-0.5,0.5c-0.1,0.2-0.2,0.4-0.3,0.7c-0.1,0.2-0.1,0.5-0.1,0.7
		c0,0.1,0,0.3,0.1,0.4c0,0.1,0.1,0.3,0.2,0.4c0.1,0.1,0.2,0.2,0.3,0.2C46.1,6,46.2,6,46.4,6c0.3,0,0.5-0.1,0.7-0.2s0.3-0.3,0.5-0.5
		c0.1-0.2,0.2-0.4,0.3-0.7C48,4.4,48,4.1,48,3.9c0-0.3-0.1-0.6-0.2-0.8c-0.2-0.2-0.4-0.3-0.7-0.3C46.7,2.8,46.5,2.9,46.3,3z
		 M47.5,6.2c-0.2,0.3-0.4,0.5-0.6,0.6C46.6,6.9,46.3,7,46,7c-0.6,0-1.1-0.2-1.4-0.5c-0.3-0.4-0.5-0.8-0.5-1.4c0-0.4,0.1-0.8,0.2-1.2
		c0.1-0.4,0.3-0.7,0.5-1s0.5-0.6,0.8-0.7c0.3-0.2,0.7-0.3,1.2-0.3c0.3,0,0.6,0.1,0.8,0.2c0.2,0.1,0.5,0.3,0.6,0.6l0,0L48.7,0h1.4
		l-1.5,6.9h-1.3L47.5,6.2L47.5,6.2L47.5,6.2z"/>
</g>
    <path id="Fill-12" class="st0" d="M56,49.2c0.4,0,0.7-0.1,0.9-0.3s0.3-0.5,0.3-0.9c0-0.2,0-0.3-0.1-0.4c-0.1-0.1-0.1-0.2-0.2-0.3
	c-0.1-0.1-0.2-0.1-0.3-0.1s-0.3,0-0.4,0h-1.3l-0.4,2.1L56,49.2L56,49.2z M56.4,46c0.3,0,0.7,0,1,0.1s0.5,0.2,0.8,0.3
	c0.2,0.2,0.4,0.4,0.5,0.6c0.1,0.3,0.2,0.6,0.2,1s-0.1,0.7-0.2,1c-0.1,0.3-0.3,0.5-0.6,0.8c-0.2,0.2-0.5,0.4-0.9,0.5
	c-0.3,0.1-0.7,0.2-1,0.2h-1.9L53.8,53h-1.5l1.4-6.9L56.4,46L56.4,46z"/>
    <g id="Group-20" transform="translate(58.000000, 46.000000)">
	<g id="Clip-14">
	</g>
        <path id="Fill-13" class="st0" d="M2.8,1.9L2.6,2.8l0,0C2.8,2.5,3,2.2,3.3,2s0.6-0.3,1-0.3c0.1,0,0.3,0,0.4,0L4.5,3.1
		c-0.1,0-0.2,0-0.3-0.1C4.1,3,4,3,3.9,3C3.6,3,3.4,3,3.2,3.1C3,3.3,2.9,3.4,2.7,3.5C2.6,3.7,2.5,3.9,2.5,4.1
		C2.4,4.3,2.3,4.5,2.3,4.7L1.8,6.9H0.5l1-5L2.8,1.9"/>
        <path id="Fill-15" class="st0" d="M5.9,5.3C6,5.4,6,5.5,6.1,5.6s0.2,0.2,0.3,0.2C6.6,6,6.7,6,6.9,6c0.3,0,0.5-0.1,0.7-0.2
		C7.7,5.6,7.8,5.5,8,5.3C8.1,5,8.2,4.8,8.2,4.6c0.1-0.2,0.1-0.5,0.1-0.7c0-0.3-0.1-0.6-0.2-0.8C7.9,2.9,7.7,2.8,7.3,2.8
		C7.1,2.8,6.8,2.9,6.7,3C6.5,3.1,6.3,3.3,6.2,3.5C6.1,3.7,6,3.9,6,4.2C5.9,4.4,5.9,4.7,5.9,4.9C5.9,5,5.9,5.2,5.9,5.3z M4.7,3.7
		C4.8,3.3,5,3,5.3,2.7C5.5,2.4,5.8,2.2,6.2,2C6.6,1.8,7,1.8,7.4,1.8c0.3,0,0.7,0,0.9,0.1C8.6,2,8.8,2.1,9,2.3S9.4,2.7,9.5,3
		s0.2,0.6,0.2,0.9c0,0.4-0.1,0.8-0.2,1.2c-0.1,0.4-0.3,0.7-0.6,1S8.4,6.6,8,6.8C7.6,6.9,7.2,7,6.8,7C6.1,7,5.5,6.8,5.1,6.5
		C4.7,6.1,4.5,5.6,4.5,4.9C4.5,4.4,4.6,4,4.7,3.7L4.7,3.7z"/>
        <path id="Fill-16" class="st0" d="M13.6,1.9l-0.2,0.9h-1l-0.5,2.5c0,0.1,0,0.1,0,0.1v0.1c0,0.1,0,0.2,0,0.2L12,5.8h0.1
		c0.1,0,0.1,0,0.2,0c0.2,0,0.3,0,0.5,0l-0.2,1c-0.1,0-0.3,0-0.4,0c-0.1,0-0.3,0-0.4,0c-0.2,0-0.3,0-0.5,0S11,6.7,10.9,6.6
		c-0.1-0.1-0.2-0.2-0.3-0.3c-0.1-0.1-0.1-0.3-0.1-0.5c0-0.1,0-0.1,0-0.2s0-0.2,0-0.3l0.6-2.7h-0.9l0.2-0.9h0.9l0.3-1.5H13l-0.3,1.5
		h0.9"/>
        <path id="Fill-17" class="st0" d="M17.2,3.5c0-0.1-0.1-0.2-0.1-0.3C17,3,16.9,3,16.8,2.9s-0.3-0.1-0.5-0.1s-0.4,0-0.5,0.1
		S15.5,3,15.4,3.1c-0.1,0.1-0.2,0.2-0.3,0.3C15,3.6,15,3.7,14.9,3.9h2.3C17.2,3.7,17.2,3.6,17.2,3.5z M14.8,4.8
		C14.8,4.8,14.8,4.9,14.8,4.8V5c0,0.3,0.1,0.5,0.3,0.7C15.2,5.9,15.5,6,15.9,6c0.1,0,0.3,0,0.4-0.1c0.1,0,0.2-0.1,0.3-0.2
		c0.1-0.1,0.2-0.1,0.2-0.2c0.1-0.1,0.1-0.2,0.2-0.2h1.4C18.1,5.6,18,5.8,17.9,6s-0.3,0.4-0.5,0.5S17,6.8,16.7,6.8
		C16.4,7,16,7,15.7,7s-0.6,0-0.9-0.1c-0.3-0.1-0.5-0.2-0.7-0.4c-0.2-0.2-0.3-0.4-0.4-0.7c-0.1-0.3-0.2-0.6-0.2-0.9
		c0-0.4,0.1-0.8,0.2-1.1c0.1-0.4,0.3-0.7,0.5-1s0.5-0.5,0.9-0.7c0.3-0.2,0.7-0.3,1.1-0.3c0.3,0,0.7,0,0.9,0.1
		c0.3,0.1,0.5,0.2,0.7,0.4s0.4,0.4,0.5,0.7s0.2,0.6,0.2,0.9c0,0.2,0,0.5-0.1,0.8L14.8,4.8L14.8,4.8L14.8,4.8z"/>
        <path id="Fill-18" class="st0" d="M22.5,3c-0.1-0.1-0.4-0.2-0.7-0.2c-0.3,0-0.5,0.1-0.7,0.2c-0.2,0.1-0.3,0.3-0.4,0.5
		s-0.2,0.4-0.2,0.7c0,0.2-0.1,0.5-0.1,0.7c0,0.1,0,0.3,0,0.4s0.1,0.2,0.2,0.3c0.1,0.1,0.2,0.2,0.3,0.2C21,6,21.1,6,21.3,6
		c0.2,0,0.3,0,0.4-0.1c0.1,0,0.2-0.1,0.3-0.2c0.1-0.1,0.2-0.2,0.2-0.3c0.1-0.1,0.1-0.2,0.1-0.3h1.4c-0.2,0.6-0.5,1.1-0.9,1.4
		S21.8,7,21.2,7c-0.7,0-1.2-0.2-1.6-0.5C19.2,6.1,19,5.6,19,4.9c0-0.4,0.1-0.8,0.2-1.2s0.3-0.7,0.5-1C20,2.4,20.3,2.2,20.6,2
		c0.3-0.2,0.7-0.2,1.2-0.2c0.3,0,0.6,0,0.9,0.1s0.5,0.2,0.7,0.3c0.2,0.1,0.4,0.3,0.5,0.6C24,3,24,3.3,24.1,3.6h-1.4
		C22.7,3.3,22.6,3.1,22.5,3"/>
        <path id="Fill-19" class="st0" d="M27.9,1.9l-0.2,0.9h-1l-0.5,2.5c0,0.1,0,0.1,0,0.1v0.1c0,0.1,0,0.2,0,0.2l0.1,0.1h0.1
		c0.1,0,0.1,0,0.2,0c0.2,0,0.3,0,0.5,0l-0.2,1c-0.1,0-0.3,0-0.4,0s-0.3,0-0.4,0c-0.2,0-0.3,0-0.5,0s-0.3-0.1-0.4-0.2
		S25,6.4,24.9,6.3c-0.1-0.1-0.1-0.3-0.1-0.5c0-0.1,0-0.1,0-0.2s0-0.2,0-0.3l0.6-2.7h-0.9l0.2-0.9h0.9l0.3-1.5h1.4L27,1.7h0.9"/>
</g>
    <polyline id="Fill-21" class="st1" points="89.2,50 88.6,52.9 85.7,52.9 86.3,50 89.2,50 "/>
    <path id="Fill-22" class="st2" d="M176.8,0.3c0.8-0.1,1.7-0.1,2.5-0.1c8.9,0,16.7,4.4,21.5,11.1h-5C191.4,5.2,184.6,1,176.8,0.3"/>
    <path id="Fill-23" class="st2" d="M195.7,41.8c-4.3,6.1-11.1,10.2-19,11c0.8,0.1,1.7,0.1,2.5,0.1c8.9,0,16.7-4.4,21.5-11.1
	L195.7,41.8"/>
    <path id="Fill-24" class="st2" d="M202.9,18.7v19.6c1.8-3.5,2.8-7.5,2.8-11.8c0-2.7-0.4-5.4-1.2-7.8L202.9,18.7"/>
    <path id="Fill-25" class="st1" d="M161.1,0.3c0.8-0.1,1.7-0.1,2.5-0.1c8.9,0,16.7,4.4,21.5,11.1H180C175.7,5.2,168.9,1,161.1,0.3"/>
    <path id="Fill-26" class="st1" d="M180,41.8c-4.3,6.1-11.1,10.2-19,11c0.8,0.1,1.7,0.1,2.5,0.1c8.9,0,16.7-4.4,21.5-11.1L180,41.8"
    />
    <polyline id="Fill-27" class="st0" points="6.8,12.3 6.8,23.2 18.2,23.2 18.2,12.3 24.5,12.3 24.5,40.7 18.2,40.7 18.2,28.5
	6.8,28.5 6.8,40.7 0.5,40.7 0.5,12.3 6.8,12.3 "/>
    <polyline id="Fill-28" class="st0" points="50.3,12.3 50.3,17.6 35.4,17.6 35.4,23.7 49.1,23.7 49.1,28.5 35.4,28.5 35.4,35.4
	50.7,35.4 50.7,40.7 29.1,40.7 29.1,12.3 50.3,12.3 "/>
    <polyline id="Fill-29" class="st0" points="60.5,12.3 72.3,31.4 72.4,31.4 72.4,12.3 78.3,12.3 78.3,40.7 72,40.7 60.2,21.7
	60.2,21.7 60.2,40.7 54.3,40.7 54.3,12.3 60.5,12.3 "/>
    <path id="Fill-30" class="st0" d="M87.9,33.7c0.3,0.7,0.8,1.2,1.4,1.6c0.6,0.4,1.2,0.7,2,0.9s1.6,0.3,2.4,0.3c0.6,0,1.2,0,1.8-0.1
	c0.6-0.1,1.2-0.3,1.8-0.5c0.6-0.3,1-0.6,1.4-1.1s0.6-1.1,0.6-1.8c0-0.8-0.2-1.4-0.7-1.9s-1.1-0.9-1.9-1.2c-0.8-0.3-1.7-0.6-2.7-0.8
	c-1-0.2-2-0.5-3.1-0.8s-2.1-0.6-3.1-1s-1.9-0.9-2.7-1.5c-0.8-0.6-1.4-1.4-1.9-2.3s-0.7-2-0.7-3.3c0-1.5,0.3-2.7,0.9-3.8
	c0.6-1.1,1.4-2,2.4-2.7s2.1-1.2,3.4-1.6c1.3-0.3,2.5-0.5,3.8-0.5c1.5,0,2.9,0.2,4.3,0.5s2.6,0.9,3.6,1.6c1.1,0.7,1.9,1.7,2.5,2.8
	c0.6,1.2,0.9,2.5,0.9,4.2h-6c-0.1-0.8-0.2-1.5-0.5-2.1s-0.7-1-1.2-1.3s-1.1-0.5-1.7-0.7c-0.6-0.1-1.4-0.2-2.1-0.2
	c-0.5,0-1,0.1-1.5,0.2s-1,0.3-1.4,0.6c-0.4,0.3-0.7,0.6-1,1s-0.4,0.9-0.4,1.5s0.1,1,0.3,1.4c0.2,0.3,0.6,0.7,1.3,1
	c0.6,0.3,1.5,0.6,2.6,0.9s2.5,0.7,4.3,1.1c0.5,0.1,1.3,0.3,2.2,0.6c0.9,0.3,1.9,0.7,2.8,1.3c0.9,0.6,1.7,1.4,2.4,2.4
	c0.7,1,1,2.3,1,3.9c0,1.3-0.3,2.5-0.8,3.6s-1.3,2.1-2.2,2.9c-1,0.8-2.2,1.4-3.7,1.9s-3.2,0.7-5.1,0.7c-1.6,0-3.1-0.2-4.5-0.6
	c-1.5-0.4-2.8-1-3.9-1.8s-2-1.9-2.7-3.1c-0.7-1.3-1-2.8-1-4.5h6C87.4,32.2,87.6,33,87.9,33.7"/>
    <path id="Fill-31" class="st0" d="M113.8,30.1c0.3,1.1,0.7,2.1,1.3,3c0.6,0.9,1.4,1.6,2.4,2.2c1,0.5,2.2,0.8,3.6,0.8
	s2.6-0.3,3.6-0.8s1.8-1.3,2.4-2.2s1.1-1.9,1.3-3c0.3-1.1,0.4-2.3,0.4-3.5s-0.1-2.4-0.4-3.6c-0.3-1.2-0.7-2.2-1.3-3.1
	c-0.6-0.9-1.4-1.6-2.4-2.2c-1-0.5-2.2-0.8-3.6-0.8s-2.6,0.3-3.6,0.8s-1.8,1.3-2.4,2.2c-0.6,0.9-1.1,2-1.3,3.1
	c-0.3,1.2-0.4,2.4-0.4,3.6S113.5,29,113.8,30.1z M108.1,20.7c0.6-1.8,1.5-3.4,2.7-4.7s2.7-2.4,4.4-3.2c1.7-0.8,3.7-1.2,5.9-1.2
	c2.2,0,4.2,0.4,5.9,1.2c1.7,0.8,3.2,1.8,4.4,3.2s2.1,2.9,2.7,4.7c0.6,1.8,1,3.8,1,5.9s-0.3,4-1,5.8c-0.6,1.8-1.5,3.3-2.7,4.7
	c-1.2,1.3-2.6,2.4-4.4,3.1c-1.7,0.8-3.7,1.1-5.9,1.1c-2.2,0-4.1-0.4-5.9-1.1c-1.7-0.8-3.2-1.8-4.4-3.1c-1.2-1.3-2.1-2.9-2.7-4.7
	s-1-3.7-1-5.8C107.2,24.5,107.5,22.6,108.1,20.7L108.1,20.7z"/>
    <polyline id="Fill-32" class="st0" points="144.8,12.3 144.8,35.4 158.6,35.4 158.6,40.7 138.5,40.7 138.5,12.3 144.8,12.3 "/>
    <path id="Fill-33" class="st0" d="M172.8,35.4c0.9,0,1.8-0.1,2.6-0.4c0.8-0.3,1.6-0.8,2.3-1.4c0.7-0.7,1.2-1.6,1.6-2.6
	c0.4-1.1,0.6-2.4,0.6-4c0-1.4-0.1-2.7-0.4-3.9c-0.3-1.2-0.7-2.1-1.4-3c-0.6-0.8-1.5-1.4-2.5-1.9c-1-0.4-2.3-0.7-3.9-0.7h-4.4v17.9
	C167.3,35.4,172.8,35.4,172.8,35.4z M173.2,12.3c1.8,0,3.5,0.3,5.1,0.9c1.6,0.6,2.9,1.5,4.1,2.6c1.2,1.2,2.1,2.6,2.7,4.4
	c0.6,1.7,1,3.8,1,6.2c0,2.1-0.3,4-0.8,5.7s-1.3,3.3-2.4,4.5c-1.1,1.3-2.4,2.3-4,3s-3.5,1.1-5.7,1.1H161V12.3H173.2L173.2,12.3z"/>
    <polyline id="Fill-34" class="st0" points="187,17.6 187,12.3 210.3,12.3 210.3,17.6 201.8,17.6 201.8,40.7 195.5,40.7 195.5,17.6
	187,17.6 "/>
    <path id="Fill-35" class="st3" d="M216.1,43.1c0.1-0.1,0.2-0.3,0.3-0.4c0.2-0.2,0.4-0.5,0.6-0.7c0.1-0.1,0.1-0.1,0.2-0.2l0,0
	c3.1-4.3,4.9-9.6,4.9-15.2c0-14.6-11.8-26.4-26.4-26.4c-0.9,0-1.7,0-2.5,0.1C206.6,1.6,217,12.8,217,26.5c0,5.8-1.8,11.1-5,15.4
	c-0.2,0.3-0.4,0.5-0.6,0.8c-0.1,0.1-0.2,0.2-0.3,0.3c-0.2,0.2-0.4,0.5-0.6,0.7c-0.1,0.1-0.2,0.2-0.3,0.3c-0.2,0.2-0.4,0.5-0.6,0.7
	c-0.1,0.1-0.2,0.2-0.3,0.3c-0.3,0.3-0.5,0.5-0.8,0.8c-0.1,0-0.1,0.1-0.2,0.1c-0.3,0.3-0.7,0.6-1,0.9c-0.1,0-0.1,0.1-0.2,0.1
	c-0.3,0.2-0.6,0.5-0.9,0.7c-0.1,0.1-0.2,0.2-0.3,0.2c-0.2,0.2-0.5,0.4-0.7,0.5c-0.1,0.1-0.3,0.2-0.4,0.3c-0.2,0.2-0.5,0.3-0.7,0.5
	c-0.1,0.1-0.3,0.2-0.4,0.2c-0.3,0.2-0.5,0.3-0.8,0.4c-0.1,0.1-0.2,0.1-0.4,0.2c-0.4,0.2-0.7,0.4-1.1,0.5c0,0-0.1,0-0.1,0.1
	c-0.4,0.2-0.8,0.4-1.2,0.5c-0.1,0-0.2,0.1-0.3,0.1c-0.3,0.1-0.6,0.2-0.9,0.3c-0.1,0-0.3,0.1-0.4,0.1c-0.3,0.1-0.6,0.2-0.8,0.3
	c-0.2,0-0.3,0.1-0.5,0.1c-0.3,0.1-0.6,0.1-0.8,0.2c-0.2,0-0.3,0.1-0.5,0.1c-0.3,0.1-0.6,0.1-0.9,0.2c-0.1,0-0.3,0-0.4,0.1
	c-0.5,0.1-0.9,0.1-1.4,0.2c0.8,0.1,1.7,0.1,2.5,0.1c0.5,0,1,0,1.5,0c0.2,0,0.3,0,0.5,0c0.3,0,0.7-0.1,1-0.1c0.2,0,0.4,0,0.5-0.1
	c0.3,0,0.7-0.1,1-0.2c0.2,0,0.3-0.1,0.5-0.1c0.4-0.1,0.7-0.2,1.1-0.2c0.1,0,0.2-0.1,0.4-0.1c0.5-0.1,0.9-0.3,1.4-0.4
	c0.1,0,0.2-0.1,0.3-0.1c0.4-0.1,0.7-0.2,1.1-0.4c0.2-0.1,0.3-0.1,0.5-0.2c0.3-0.1,0.6-0.2,0.9-0.4c0.2-0.1,0.3-0.1,0.5-0.2
	c0.3-0.1,0.6-0.3,0.9-0.4c0.1-0.1,0.3-0.1,0.4-0.2c0.4-0.2,0.8-0.4,1.2-0.7h0.1c0.4-0.2,0.8-0.5,1.2-0.8c0.1-0.1,0.2-0.2,0.3-0.2
	c0.3-0.2,0.5-0.4,0.8-0.6c0.1-0.1,0.3-0.2,0.4-0.3c0.2-0.2,0.5-0.4,0.7-0.6c0.1-0.1,0.3-0.2,0.4-0.3c0.3-0.2,0.5-0.5,0.8-0.7
	c0.1-0.1,0.2-0.2,0.3-0.3c0.3-0.3,0.7-0.7,1-1c0.1-0.1,0.1-0.2,0.2-0.2C215.6,43.7,215.8,43.4,216.1,43.1"/>
</svg>
