<svg id="naked-logo" xmlns="http://www.w3.org/2000/svg" width="91.927" height="24" viewBox="0 0 91.927 24" role="img" class="fill-green-200 w-auto h-6 text-inherit"><g id="Group_43111" data-name="Group 43111" transform="translate(0)"><path id="Path_25731" data-name="Path 25731" d="M348.715,21.335l-5.74-7.456,5.335-5.373a1.338,1.338,0,0,0-1.9-1.886l-7.163,7.195V1.825A1.485,1.485,0,0,0,337.775.19a1.454,1.454,0,0,0-1.453,1.635V22.341a1.473,1.473,0,1,0,2.927,0V17.4l1.645-1.534,5.611,7.2a1.766,1.766,0,0,0,1.348.847h.011a1.413,1.413,0,0,0,1.363-1.369v-.024a1.933,1.933,0,0,0-.511-1.192" transform="translate(-291.329 -0.165)" fill="currentColor"></path><path id="Path_25732" data-name="Path 25732" d="M591.294.18a1.454,1.454,0,0,0-1.453,1.635l0,6.155a7.244,7.244,0,0,0-4.784-1.748c-4.1,0-6.855,2.91-6.855,7.239l-.007,3.472a7.47,7.47,0,0,0,1.87,5.254,6.543,6.543,0,0,0,4.9,1.968,6.877,6.877,0,0,0,5-1.987v.163c0,1.023.52,1.635,1.394,1.635s1.411-.626,1.411-1.635V1.816A1.433,1.433,0,0,0,591.294.18m-1.449,16.431a5.307,5.307,0,0,1-1.2,3.513,4.132,4.132,0,0,1-3.213,1.4,4.02,4.02,0,0,1-2.928-1.116,5.674,5.674,0,0,1-1.375-4.114V14.072c0-3.233,1.579-5.163,4.225-5.163a4.388,4.388,0,0,1,4.49,4.585Z" transform="translate(-500.842 -0.156)" fill="currentColor"></path><path id="Path_25733" data-name="Path 25733" d="M455.333,45.69a7.014,7.014,0,0,0-5.125,2.078,7.873,7.873,0,0,0-2.049,5.6l-.027,2.606c0,4.692,2.848,7.607,7.431,7.607a7.175,7.175,0,0,0,5.331-2.005,2.816,2.816,0,0,0,1.017-1.849,1.17,1.17,0,0,0-1.172-1.221,1.342,1.342,0,0,0-1,.476l-.056.064c-.178.2-.361.413-.543.6l-.005.005a4.452,4.452,0,0,1-3.47,1.291h-.011c-2.871,0-4.585-1.79-4.585-4.789V55.5H460.7a1.407,1.407,0,0,0,1.448-.926,4.81,4.81,0,0,0,.187-1.651,7.242,7.242,0,0,0-1.965-5.156,6.844,6.844,0,0,0-5.041-2.074m-4.222,7.232a5.071,5.071,0,0,1,1.183-3.294,3.974,3.974,0,0,1,3.058-1.3c2.435,0,3.972,1.751,4.051,4.591Z" transform="translate(-388.181 -39.578)" fill="currentColor"></path><path id="Path_25734" data-name="Path 25734" d="M211.681,45.343a8.018,8.018,0,0,0-3.74.738h0a4.405,4.405,0,0,0-1.9,1.7c-.674,1.126-.26,1.8.048,2.108l.021.019a1.284,1.284,0,0,0,.847.29,1.468,1.468,0,0,0,1.193-.708l.011-.016a4.255,4.255,0,0,1,.508-.669,1.712,1.712,0,0,1,.286-.238l.008-.005a4.355,4.355,0,0,1,2.684-.565c2.306,0,3.476,1.061,3.476,3.155v1.52h-4.277a6.859,6.859,0,0,0-4.574,1.43,4.8,4.8,0,0,0-1.593,3.753,5.221,5.221,0,0,0,1.613,3.936,5.937,5.937,0,0,0,4.147,1.488,6.711,6.711,0,0,0,4.781-1.9v.285a1.4,1.4,0,0,0,1.43,1.41,1.442,1.442,0,0,0,1.422-1.635V51.1c0-3.676-2.21-5.667-6.395-5.761m3.46,11.629a3.813,3.813,0,0,1-4.083,3.686h-.02c-1.726,0-3.468-.882-3.468-2.852,0-1.746,1.084-2.6,3.314-2.6h4.257Z" transform="translate(-177.3 -39.274)" fill="currentColor"></path><path id="Path_25735" data-name="Path 25735" d="M22.226,0a1.471,1.471,0,0,0-1.472,1.472V18.8L9.517,7.564V1.472a1.472,1.472,0,1,0-2.943,0V4.621L2.5.543A1.463,1.463,0,0,0,.428,2.611L6.574,8.757V22.341a1.472,1.472,0,1,0,2.943,0V11.7L21.079,23.262a1.466,1.466,0,0,0,1.677.45l.031-.011c.025-.011.05-.023.075-.035s.039-.018.058-.028.033-.02.05-.029.051-.029.075-.046l.031-.023a1.474,1.474,0,0,0,.19-.158c.029-.03.056-.061.083-.092l.012-.013c.021-.026.04-.053.059-.079l.027-.037c.015-.023.029-.047.043-.071s.022-.036.032-.055.017-.036.026-.054.026-.052.037-.08l.009-.026a1.463,1.463,0,0,0,.1-.535V1.472A1.471,1.471,0,0,0,22.226,0" transform="translate(0)" fill="currentColor"></path></g></svg>